<svg xmlns="http://www.w3.org/2000/svg" xmlns:xlink="http://www.w3.org/1999/xlink" width="669" zoomAndPan="magnify" viewBox="0 0 501.75 167.249994" height="223" preserveAspectRatio="xMidYMid meet" version="1.0"><defs><g/><clipPath id="ad054faa18"><rect x="0" width="275" y="0" height="24"/></clipPath></defs><g fill="#0a2e65" fill-opacity="1"><g transform="translate(126.946824, 69.511079)"><g><path d="M 8.75 0 C 6.738281 0 5.1875 -0.550781 4.09375 -1.65625 C 3.007812 -2.769531 2.46875 -4.332031 2.46875 -6.34375 L 2.46875 -36.671875 C 2.46875 -38.722656 3.007812 -40.289062 4.09375 -41.375 C 5.1875 -42.46875 6.738281 -43.015625 8.75 -43.015625 L 32.78125 -43.015625 L 32.78125 -35.4375 L 10.046875 -35.4375 L 10.046875 -7.640625 L 32.78125 -7.640625 L 32.78125 0 Z M 12.578125 -17.75 L 12.578125 -25.328125 L 32.78125 -25.328125 L 32.78125 -17.75 Z M 12.578125 -17.75 "/></g></g></g><g fill="#0a2e65" fill-opacity="1"><g transform="translate(162.188031, 69.511079)"><g><path d="M 14.046875 0 C 12.160156 0 10.722656 -0.488281 9.734375 -1.46875 C 8.742188 -2.457031 8.085938 -4.019531 7.765625 -6.15625 L 2.46875 -43.015625 L 10.109375 -43.015625 L 15.15625 -7.640625 L 28.09375 -7.640625 C 27.9375 -5.128906 27.382812 -3.25 26.4375 -2 C 25.488281 -0.75 24.050781 -0.0820312 22.125 0 Z M 20.890625 -10.171875 L 25.640625 -43.015625 L 33.21875 -43.015625 L 28.53125 -10.171875 Z M 20.890625 -10.171875 "/></g></g></g><g fill="#0a2e65" fill-opacity="1"><g transform="translate(197.860509, 69.511079)"><g><path d="M 2.46875 -36.671875 C 2.46875 -38.722656 3.007812 -40.289062 4.09375 -41.375 C 5.1875 -42.46875 6.738281 -43.015625 8.75 -43.015625 L 26.4375 -43.015625 C 28.488281 -43.015625 30.054688 -42.46875 31.140625 -41.375 C 32.234375 -40.289062 32.78125 -38.722656 32.78125 -36.671875 L 32.78125 0 L 25.203125 0 L 25.203125 -17.75 L 12.578125 -17.75 L 12.578125 -25.328125 L 25.203125 -25.328125 L 25.203125 -35.4375 L 10.046875 -35.4375 L 10.046875 0 L 2.46875 0 Z M 2.46875 -36.671875 "/></g></g></g><g fill="#0a2e65" fill-opacity="1"><g transform="translate(233.101716, 69.511079)"><g><path d="M 25.203125 0 L 25.203125 -35.4375 L 2.46875 -35.4375 L 2.46875 -43.015625 L 26.4375 -43.015625 C 28.488281 -43.015625 30.054688 -42.46875 31.140625 -41.375 C 32.234375 -40.289062 32.78125 -38.722656 32.78125 -36.671875 L 32.78125 0 Z M 2.46875 0 L 2.46875 -32.90625 L 10.046875 -32.90625 L 10.046875 0 Z M 2.46875 0 "/></g></g></g><g fill="#0a2e65" fill-opacity="1"><g transform="translate(268.342924, 69.511079)"><g><path d="M 2.46875 0 L 2.46875 -32.90625 L 10.046875 -32.90625 L 10.046875 -7.640625 L 25.203125 -7.640625 L 25.203125 -35.4375 L 2.46875 -35.4375 L 2.46875 -43.015625 L 26.4375 -43.015625 C 28.488281 -43.015625 30.054688 -42.46875 31.140625 -41.375 C 32.234375 -40.289062 32.78125 -38.722656 32.78125 -36.671875 L 32.78125 -6.34375 C 32.78125 -4.332031 32.234375 -2.769531 31.140625 -1.65625 C 30.054688 -0.550781 28.488281 0 26.4375 0 Z M 2.46875 0 "/></g></g></g><g fill="#0a2e65" fill-opacity="1"><g transform="translate(303.584131, 69.511079)"><g><path d="M 2.46875 0 L 2.46875 -43.015625 L 26.4375 -43.015625 C 28.488281 -43.015625 30.054688 -42.46875 31.140625 -41.375 C 32.234375 -40.289062 32.78125 -38.722656 32.78125 -36.671875 L 32.78125 -24.03125 C 32.78125 -22.019531 32.234375 -20.46875 31.140625 -19.375 C 30.054688 -18.289062 28.488281 -17.75 26.4375 -17.75 L 10.046875 -17.75 L 10.046875 0 Z M 10.046875 -25.328125 L 25.203125 -25.328125 L 25.203125 -35.4375 L 10.046875 -35.4375 Z M 18.125 -15.21875 L 25.765625 -15.21875 L 27.921875 0 L 20.28125 0 Z M 18.125 -15.21875 "/></g></g></g><g fill="#0a2e65" fill-opacity="1"><g transform="translate(338.825339, 69.511079)"><g><path d="M 8.75 0 C 6.738281 0 5.1875 -0.550781 4.09375 -1.65625 C 3.007812 -2.769531 2.46875 -4.332031 2.46875 -6.34375 L 2.46875 -32.90625 L 10.046875 -32.90625 L 10.046875 -7.640625 L 25.203125 -7.640625 L 25.203125 -35.4375 L 2.46875 -35.4375 L 2.46875 -43.015625 L 26.4375 -43.015625 C 28.488281 -43.015625 30.054688 -42.46875 31.140625 -41.375 C 32.234375 -40.289062 32.78125 -38.722656 32.78125 -36.671875 L 32.78125 -6.34375 C 32.78125 -4.332031 32.234375 -2.769531 31.140625 -1.65625 C 30.054688 -0.550781 28.488281 0 26.4375 0 Z M 8.75 0 "/></g></g></g><g fill="#0a2e65" fill-opacity="1"><g transform="translate(118.325329, 123.270004)"><g><path d="M 2.46875 -36.671875 C 2.46875 -38.722656 3.007812 -40.289062 4.09375 -41.375 C 5.1875 -42.46875 6.738281 -43.015625 8.75 -43.015625 L 44.125 -43.015625 C 46.175781 -43.015625 47.742188 -42.46875 48.828125 -41.375 C 49.921875 -40.289062 50.46875 -38.722656 50.46875 -36.671875 L 50.46875 0 L 42.890625 0 L 42.890625 -35.4375 L 10.046875 -35.4375 L 10.046875 0 L 2.46875 0 Z M 22.671875 0 L 22.671875 -32.90625 L 30.265625 -32.90625 L 30.265625 0 Z M 22.671875 0 "/></g></g></g><g fill="#0a2e65" fill-opacity="1"><g transform="translate(171.248748, 123.270004)"><g><path d="M 2.46875 -36.671875 C 2.46875 -38.722656 3.007812 -40.289062 4.09375 -41.375 C 5.1875 -42.46875 6.738281 -43.015625 8.75 -43.015625 L 26.4375 -43.015625 C 28.488281 -43.015625 30.054688 -42.46875 31.140625 -41.375 C 32.234375 -40.289062 32.78125 -38.722656 32.78125 -36.671875 L 32.78125 0 L 25.203125 0 L 25.203125 -17.75 L 12.578125 -17.75 L 12.578125 -25.328125 L 25.203125 -25.328125 L 25.203125 -35.4375 L 10.046875 -35.4375 L 10.046875 0 L 2.46875 0 Z M 2.46875 -36.671875 "/></g></g></g><g fill="#0a2e65" fill-opacity="1"><g transform="translate(206.489956, 123.270004)"><g><path d="M 8.75 0 C 6.738281 0 5.1875 -0.550781 4.09375 -1.65625 C 3.007812 -2.769531 2.46875 -4.332031 2.46875 -6.34375 L 2.46875 -36.671875 C 2.46875 -38.722656 3.007812 -40.289062 4.09375 -41.375 C 5.1875 -42.46875 6.738281 -43.015625 8.75 -43.015625 L 32.78125 -43.015625 L 32.78125 -35.4375 L 10.046875 -35.4375 L 10.046875 -7.640625 L 32.78125 -7.640625 L 32.78125 0 Z M 8.75 0 "/></g></g></g><g fill="#0a2e65" fill-opacity="1"><g transform="translate(241.731163, 123.270004)"><g><path d="M 25.203125 0 L 25.203125 -17.75 L 12.578125 -17.75 L 12.578125 -25.328125 L 25.203125 -25.328125 L 25.203125 -43.015625 L 32.78125 -43.015625 L 32.78125 0 Z M 2.46875 0 L 2.46875 -43.015625 L 10.046875 -43.015625 L 10.046875 0 Z M 2.46875 0 "/></g></g></g><g fill="#0a2e65" fill-opacity="1"><g transform="translate(276.972371, 123.270004)"><g><path d="M 2.46875 -36.671875 C 2.46875 -38.722656 3.007812 -40.289062 4.09375 -41.375 C 5.1875 -42.46875 6.738281 -43.015625 8.75 -43.015625 L 26.4375 -43.015625 C 28.488281 -43.015625 30.054688 -42.46875 31.140625 -41.375 C 32.234375 -40.289062 32.78125 -38.722656 32.78125 -36.671875 L 32.78125 0 L 25.203125 0 L 25.203125 -17.75 L 12.578125 -17.75 L 12.578125 -25.328125 L 25.203125 -25.328125 L 25.203125 -35.4375 L 10.046875 -35.4375 L 10.046875 0 L 2.46875 0 Z M 2.46875 -36.671875 "/></g></g></g><g fill="#0a2e65" fill-opacity="1"><g transform="translate(312.213567, 123.270004)"><g><path d="M 2.46875 0 L 2.46875 -32.90625 L 10.046875 -32.90625 L 10.046875 -7.640625 L 25.203125 -7.640625 L 25.203125 -35.4375 L 2.46875 -35.4375 L 2.46875 -43.015625 L 26.4375 -43.015625 C 28.488281 -43.015625 30.054688 -42.46875 31.140625 -41.375 C 32.234375 -40.289062 32.78125 -38.722656 32.78125 -36.671875 L 32.78125 -6.34375 C 32.78125 -4.332031 32.234375 -2.769531 31.140625 -1.65625 C 30.054688 -0.550781 28.488281 0 26.4375 0 Z M 2.46875 0 "/></g></g></g><g fill="#0a2e65" fill-opacity="1"><g transform="translate(347.454786, 123.270004)"><g><path d="M 8.75 0 C 6.738281 0 5.1875 -0.550781 4.09375 -1.65625 C 3.007812 -2.769531 2.46875 -4.332031 2.46875 -6.34375 L 2.46875 -32.90625 L 10.046875 -32.90625 L 10.046875 -7.640625 L 25.203125 -7.640625 L 25.203125 -35.4375 L 2.46875 -35.4375 L 2.46875 -43.015625 L 26.4375 -43.015625 C 28.488281 -43.015625 30.054688 -42.46875 31.140625 -41.375 C 32.234375 -40.289062 32.78125 -38.722656 32.78125 -36.671875 L 32.78125 -6.34375 C 32.78125 -4.332031 32.234375 -2.769531 31.140625 -1.65625 C 30.054688 -0.550781 28.488281 0 26.4375 0 Z M 8.75 0 "/></g></g></g><g transform="matrix(1, 0, 0, 1, 114, 135)"><g clip-path="url(#ad054faa18)"><g fill="#ff8300" fill-opacity="1"><g transform="translate(1.824855, 18.800341)"><g><path d="M 0.90625 0 L 0.90625 -12.125 L 3.703125 -12.125 L 3.703125 -2.8125 L 9.28125 -2.8125 L 9.28125 -13.046875 L 0.90625 -13.046875 L 0.90625 -15.84375 L 9.734375 -15.84375 C 10.492188 -15.84375 11.070312 -15.640625 11.46875 -15.234375 C 11.875 -14.835938 12.078125 -14.265625 12.078125 -13.515625 L 12.078125 -2.34375 C 12.078125 -1.59375 11.875 -1.015625 11.46875 -0.609375 C 11.070312 -0.203125 10.492188 0 9.734375 0 Z M 0.90625 0 "/></g></g></g><g fill="#ff8300" fill-opacity="1"><g transform="translate(17.869508, 18.800341)"><g><path d="M 3.21875 0 C 2.476562 0 1.90625 -0.203125 1.5 -0.609375 C 1.101562 -1.015625 0.90625 -1.59375 0.90625 -2.34375 L 0.90625 -13.515625 C 0.90625 -14.265625 1.101562 -14.835938 1.5 -15.234375 C 1.90625 -15.640625 2.476562 -15.84375 3.21875 -15.84375 L 12.078125 -15.84375 L 12.078125 -13.046875 L 3.703125 -13.046875 L 3.703125 -2.8125 L 12.078125 -2.8125 L 12.078125 0 Z M 4.625 -6.53125 L 4.625 -9.328125 L 12.078125 -9.328125 L 12.078125 -6.53125 Z M 4.625 -6.53125 "/></g></g></g><g fill="#ff8300" fill-opacity="1"><g transform="translate(33.914161, 18.800341)"><g><path d="M 3.21875 -6.53125 C 2.476562 -6.53125 1.90625 -6.726562 1.5 -7.125 C 1.101562 -7.53125 0.90625 -8.109375 0.90625 -8.859375 L 0.90625 -13.515625 C 0.90625 -14.265625 1.101562 -14.835938 1.5 -15.234375 C 1.90625 -15.640625 2.476562 -15.84375 3.21875 -15.84375 L 12.078125 -15.84375 L 12.078125 -13.046875 L 3.703125 -13.046875 L 3.703125 -9.328125 L 9.734375 -9.328125 C 10.566406 -9.328125 11.179688 -9.082031 11.578125 -8.59375 C 11.984375 -8.113281 12.132812 -7.425781 12.03125 -6.53125 Z M 0.90625 0 L 0.90625 -2.8125 L 9.28125 -2.8125 L 9.28125 -5.609375 L 12.078125 -5.609375 L 12.078125 -2.34375 C 12.078125 -1.59375 11.875 -1.015625 11.46875 -0.609375 C 11.070312 -0.203125 10.492188 0 9.734375 0 Z M 0.90625 0 "/></g></g></g><g fill="#ff8300" fill-opacity="1"><g transform="translate(49.958814, 18.800341)"><g><path d="M 3.21875 0 C 2.476562 0 1.90625 -0.203125 1.5 -0.609375 C 1.101562 -1.015625 0.90625 -1.59375 0.90625 -2.34375 L 0.90625 -13.515625 C 0.90625 -14.265625 1.101562 -14.835938 1.5 -15.234375 C 1.90625 -15.640625 2.476562 -15.84375 3.21875 -15.84375 L 12.078125 -15.84375 L 12.078125 -13.046875 L 3.703125 -13.046875 L 3.703125 -2.8125 L 12.078125 -2.8125 L 12.078125 0 Z M 4.625 -6.53125 L 4.625 -9.328125 L 12.078125 -9.328125 L 12.078125 -6.53125 Z M 4.625 -6.53125 "/></g></g></g><g fill="#ff8300" fill-opacity="1"><g transform="translate(66.003467, 18.800341)"><g><path d="M 9.28125 0 L 9.28125 -13.046875 L 0.90625 -13.046875 L 0.90625 -15.84375 L 9.734375 -15.84375 C 10.492188 -15.84375 11.070312 -15.640625 11.46875 -15.234375 C 11.875 -14.835938 12.078125 -14.265625 12.078125 -13.515625 L 12.078125 0 Z M 0.90625 0 L 0.90625 -12.125 L 3.703125 -12.125 L 3.703125 0 Z M 0.90625 0 "/></g></g></g><g fill="#ff8300" fill-opacity="1"><g transform="translate(82.04812, 18.800341)"><g><path d="M 5.171875 0 C 4.472656 0 3.941406 -0.179688 3.578125 -0.546875 C 3.222656 -0.910156 2.984375 -1.484375 2.859375 -2.265625 L 0.90625 -15.84375 L 3.71875 -15.84375 L 5.578125 -2.8125 L 10.359375 -2.8125 C 10.296875 -1.894531 10.085938 -1.203125 9.734375 -0.734375 C 9.390625 -0.273438 8.863281 -0.03125 8.15625 0 Z M 7.703125 -3.75 L 9.4375 -15.84375 L 12.234375 -15.84375 L 10.515625 -3.75 Z M 7.703125 -3.75 "/></g></g></g><g fill="#ff8300" fill-opacity="1"><g transform="translate(98.251622, 18.800341)"><g><path d="M 3.21875 0 C 2.476562 0 1.90625 -0.203125 1.5 -0.609375 C 1.101562 -1.015625 0.90625 -1.59375 0.90625 -2.34375 L 0.90625 -12.125 L 3.703125 -12.125 L 3.703125 -2.8125 L 9.28125 -2.8125 L 9.28125 -13.046875 L 0.90625 -13.046875 L 0.90625 -15.84375 L 9.734375 -15.84375 C 10.492188 -15.84375 11.070312 -15.640625 11.46875 -15.234375 C 11.875 -14.835938 12.078125 -14.265625 12.078125 -13.515625 L 12.078125 -2.34375 C 12.078125 -1.59375 11.875 -1.015625 11.46875 -0.609375 C 11.070312 -0.203125 10.492188 0 9.734375 0 Z M 3.21875 0 "/></g></g></g><g fill="#ff8300" fill-opacity="1"><g transform="translate(114.296275, 18.800341)"><g><path d="M 3.21875 0 C 2.476562 0 1.90625 -0.203125 1.5 -0.609375 C 1.101562 -1.015625 0.90625 -1.59375 0.90625 -2.34375 L 0.90625 -15.84375 L 3.703125 -15.84375 L 3.703125 -2.8125 L 9.28125 -2.8125 L 9.28125 0 Z M 3.21875 0 "/></g></g></g><g fill="#ff8300" fill-opacity="1"><g transform="translate(127.549877, 18.800341)"><g><path d="M 5.171875 0 C 4.472656 0 3.941406 -0.179688 3.578125 -0.546875 C 3.222656 -0.910156 2.984375 -1.484375 2.859375 -2.265625 L 0.90625 -15.84375 L 3.71875 -15.84375 L 5.578125 -2.8125 L 10.359375 -2.8125 C 10.296875 -1.894531 10.085938 -1.203125 9.734375 -0.734375 C 9.390625 -0.273438 8.863281 -0.03125 8.15625 0 Z M 7.703125 -3.75 L 9.4375 -15.84375 L 12.234375 -15.84375 L 10.515625 -3.75 Z M 7.703125 -3.75 "/></g></g></g><g fill="#ff8300" fill-opacity="1"><g transform="translate(143.753379, 18.800341)"><g><path d="M 3.21875 0 C 2.476562 0 1.90625 -0.203125 1.5 -0.609375 C 1.101562 -1.015625 0.90625 -1.59375 0.90625 -2.34375 L 0.90625 -13.515625 C 0.90625 -14.265625 1.101562 -14.835938 1.5 -15.234375 C 1.90625 -15.640625 2.476562 -15.84375 3.21875 -15.84375 L 12.078125 -15.84375 L 12.078125 -13.046875 L 3.703125 -13.046875 L 3.703125 -2.8125 L 12.078125 -2.8125 L 12.078125 0 Z M 4.625 -6.53125 L 4.625 -9.328125 L 12.078125 -9.328125 L 12.078125 -6.53125 Z M 4.625 -6.53125 "/></g></g></g><g fill="#ff8300" fill-opacity="1"><g transform="translate(159.798032, 18.800341)"><g><path d="M 0.90625 0 L 0.90625 -12.125 L 3.703125 -12.125 L 3.703125 -2.8125 L 9.28125 -2.8125 L 9.28125 -13.046875 L 0.90625 -13.046875 L 0.90625 -15.84375 L 9.734375 -15.84375 C 10.492188 -15.84375 11.070312 -15.640625 11.46875 -15.234375 C 11.875 -14.835938 12.078125 -14.265625 12.078125 -13.515625 L 12.078125 -2.34375 C 12.078125 -1.59375 11.875 -1.015625 11.46875 -0.609375 C 11.070312 -0.203125 10.492188 0 9.734375 0 Z M 0.90625 0 "/></g></g></g><g fill="#ff8300" fill-opacity="1"><g transform="translate(175.842685, 18.800341)"><g><path d="M 3.21875 0 C 2.476562 0 1.90625 -0.203125 1.5 -0.609375 C 1.101562 -1.015625 0.90625 -1.59375 0.90625 -2.34375 L 0.90625 -12.125 L 3.703125 -12.125 L 3.703125 -2.8125 L 9.28125 -2.8125 L 9.28125 -13.046875 L 0.90625 -13.046875 L 0.90625 -15.84375 L 9.734375 -15.84375 C 10.492188 -15.84375 11.070312 -15.640625 11.46875 -15.234375 C 11.875 -14.835938 12.078125 -14.265625 12.078125 -13.515625 L 12.078125 -2.34375 C 12.078125 -1.59375 11.875 -1.015625 11.46875 -0.609375 C 11.070312 -0.203125 10.492188 0 9.734375 0 Z M 3.21875 0 "/></g></g></g><g fill="#ff8300" fill-opacity="1"><g transform="translate(191.887338, 18.800341)"><g><path d="M 0.90625 0 L 0.90625 -15.84375 L 9.734375 -15.84375 C 10.492188 -15.84375 11.070312 -15.640625 11.46875 -15.234375 C 11.875 -14.835938 12.078125 -14.265625 12.078125 -13.515625 L 12.078125 -8.859375 C 12.078125 -8.109375 11.875 -7.53125 11.46875 -7.125 C 11.070312 -6.726562 10.492188 -6.53125 9.734375 -6.53125 L 3.703125 -6.53125 L 3.703125 0 Z M 3.703125 -9.328125 L 9.28125 -9.328125 L 9.28125 -13.046875 L 3.703125 -13.046875 Z M 6.671875 -5.609375 L 9.484375 -5.609375 L 10.28125 0 L 7.46875 0 Z M 6.671875 -5.609375 "/></g></g></g><g fill="#ff8300" fill-opacity="1"><g transform="translate(207.931992, 18.800341)"><g/></g></g><g fill="#ff8300" fill-opacity="1"><g transform="translate(219.619862, 18.800341)"><g><path d="M 3.21875 0 C 2.476562 0 1.90625 -0.203125 1.5 -0.609375 C 1.101562 -1.015625 0.90625 -1.59375 0.90625 -2.34375 L 0.90625 -15.84375 L 3.703125 -15.84375 L 3.703125 -2.8125 L 15.796875 -2.8125 L 15.796875 -15.84375 L 18.59375 -15.84375 L 18.59375 -2.34375 C 18.59375 -1.59375 18.390625 -1.015625 17.984375 -0.609375 C 17.585938 -0.203125 17.007812 0 16.25 0 Z M 8.359375 -3.75 L 8.359375 -15.84375 L 11.140625 -15.84375 L 11.140625 -3.75 Z M 8.359375 -3.75 "/></g></g></g><g fill="#ff8300" fill-opacity="1"><g transform="translate(242.17701, 18.800341)"><g><path d="M 3.21875 0 C 2.476562 0 1.90625 -0.203125 1.5 -0.609375 C 1.101562 -1.015625 0.90625 -1.59375 0.90625 -2.34375 L 0.90625 -13.515625 C 0.90625 -14.265625 1.101562 -14.835938 1.5 -15.234375 C 1.90625 -15.640625 2.476562 -15.84375 3.21875 -15.84375 L 12.078125 -15.84375 L 12.078125 -13.046875 L 3.703125 -13.046875 L 3.703125 -2.8125 L 12.078125 -2.8125 L 12.078125 0 Z M 4.625 -6.53125 L 4.625 -9.328125 L 12.078125 -9.328125 L 12.078125 -6.53125 Z M 4.625 -6.53125 "/></g></g></g><g fill="#ff8300" fill-opacity="1"><g transform="translate(258.221663, 18.800341)"><g><path d="M 0.90625 0 L 0.90625 -15.84375 L 9.734375 -15.84375 C 10.492188 -15.84375 11.070312 -15.640625 11.46875 -15.234375 C 11.875 -14.835938 12.078125 -14.265625 12.078125 -13.515625 L 12.078125 -9.78125 C 12.078125 -8.96875 11.925781 -8.347656 11.625 -7.921875 C 11.925781 -7.492188 12.078125 -6.875 12.078125 -6.0625 L 12.078125 -2.34375 C 12.078125 -1.59375 11.875 -1.015625 11.46875 -0.609375 C 11.070312 -0.203125 10.492188 0 9.734375 0 Z M 3.703125 -2.8125 L 9.28125 -2.8125 L 9.28125 -6.53125 L 4.625 -6.53125 L 4.625 -9.328125 L 9.28125 -9.328125 L 9.28125 -13.046875 L 3.703125 -13.046875 Z M 3.703125 -2.8125 "/></g></g></g></g></g></svg>